<?xml version="1.0" encoding="UTF-8"?>
<svg id="Layer_1" xmlns="http://www.w3.org/2000/svg" version="1.1" viewBox="0 0 598.5 645.4">
  <!-- Generator: Adobe Illustrator 29.0.1, SVG Export Plug-In . SVG Version: 2.1.0 Build 192)  -->
  <defs>
    <style>
      .st0 {
        fill: #cde70e;
      }

      .st1 {
        fill: #083070;
      }

      .st2 {
        fill: #083173;
      }

      .st3 {
        display: none;
      }

      .st4 {
        fill: #afd8f9;
      }
    </style>
  </defs>
  <g class="st3">
    <path class="st1" d="M105,381.4c14.5-17.7,36.6-29,61.2-29,43.7,0,79.2,35.5,79.2,79.2s-6.2,35-16.6,48.5c.2,0,.4,0,.5,0h.3c23.9,6.3,43.7,21.2,56.5,40.9V192.3H104.9v188.9h0v.2ZM151.7,223h86.2v16.8h-86.2v-16.8ZM151.7,259.3h86.2v16.8h-86.2v-16.8ZM151.7,295.5h86.2v16.8h-86.2v-16.8Z"/>
    <path class="st1" d="M414.8,480.4h0c.2,0,.4,0,.6-.2-10.4-13.4-16.6-30.2-16.6-48.5,0-43.7,35.6-79.2,79.2-79.2s48,12,62.5,30.7V76.5h-231v449.6h45.6c12.6-22,33.7-38.9,59.5-45.7h.2ZM450.9,112.5h36.9v33.2h-36.9v-33.2ZM450.9,180.1h36.9v33.2h-36.9v-33.2ZM450.9,247.6h36.9v33.2h-36.9v-33.2ZM360.6,112.5h36.9v33.2h-36.9v-33.2ZM360.6,180.1h36.9v33.2h-36.9v-33.2ZM360.6,247.6h36.9v33.2h-36.9v-33.2ZM360.6,315.1h36.9v33.2h-36.9v-33.2Z"/>
    <path class="st0" d="M223.6,503.1h0c-5.8-1.5-11.7-2.4-17.6-2.8-11.7,6.8-25.2,10.7-39.7,10.7s-28-3.9-39.7-10.7c-5.9.4-11.8,1.3-17.6,2.8h0c-1.3.3-2.6.7-3.8,1.1-30.3,9.8-51,38-51,70.1v21.4c0,4.6,3.7,8.3,8.3,8.3h207.8c4.6,0,8.3-3.7,8.3-8.3v-21.4c0-18.3-6.7-35.3-18-48.3-9.4-10.9-22.1-19-36.8-22.9h0Z"/>
    <path class="st0" d="M166.2,487.4c12.4,0,23.8-4,33.1-10.9,13.7-10.2,22.6-26.4,22.6-44.8,0-30.8-24.9-55.7-55.7-55.7s-55.7,24.9-55.7,55.7,8.9,34.7,22.6,44.8c9.2,6.8,20.7,10.9,33.1,10.9h0Z"/>
    <path class="st0" d="M562.6,516.7c-3.4-2.7-7.1-5.1-10.9-7.2-3.5-1.9-7.1-3.5-10.9-4.8-1.7-.6-3.4-1.1-5.2-1.6h0c-5.8-1.5-11.7-2.4-17.6-2.8-11.7,6.8-25.2,10.7-39.7,10.7s-28-3.9-39.7-10.7c-5.9.4-11.8,1.3-17.6,2.8h0c-14.7,3.9-27.3,12-36.8,22.9-3,3.4-5.6,7-7.9,10.9-2,3.5-3.8,7.1-5.3,10.9-3.2,8.3-4.9,17.2-4.9,26.5v21.4c0,4.6,3.7,8.3,8.3,8.3h207.7c4.6,0,8.3-3.7,8.3-8.3v-21.4c0-23-10.6-44-27.8-57.7h.2Z"/>
    <path class="st0" d="M422.5,431.7c0,18.4,8.9,34.7,22.6,44.8,9.2,6.8,20.7,10.9,33.1,10.9s23.8-4,33.1-10.9c13.7-10.2,22.6-26.4,22.6-44.8,0-30.8-24.9-55.7-55.7-55.7s-55.7,24.9-55.7,55.7h0Z"/>
  </g>
  <g>
    <path class="st1" d="M302.7,209c56,0,101.4-45.4,101.4-101.4S358.7,6.2,302.6,6.2s-101.5,45.4-101.5,101.4,45.4,101.5,101.5,101.5h.1Z"/>
    <path class="st1" d="M331.9,357.1h109.1c4.9,0,9.5,2,12.9,5.6s5,8.3,4.7,13.2l-.2,2.2-10.8,159.5c22.4-8.6,41.3-15.9,56.5-21.8,26.6-10.2,42.8-39.3,38.4-69.3-7.8-53.8-15.7-105.1-15.7-105.2-11.9-61.6-58.3-86.2-141-102.5l-54,118.3h0Z"/>
    <path class="st1" d="M62.8,446.5c-4.4,30,11.7,59.1,38.4,69.3,15.2,5.8,34.2,13.1,56.5,21.8l-10.8-159.5-.2-2.2c-.3-4.9,1.4-9.6,4.7-13.2,3.3-3.6,8-5.6,12.9-5.6h109.1l-54-118.3c-82.6,16.2-129.1,40.9-141,102.5,0,.2-7.9,51.4-15.7,105.2h0Z"/>
    <path class="st1" d="M329.2,357.1c-2.7-21.4-6.3-44.3-9.9-68.1l20.7-30.1c3.7-5.4,0-13-6.1-13h-1c-9.7,2.2-19.8,3.4-30.1,3.4s-20.4-1.2-30.1-3.4h-1c-6.2,0-9.8,7.6-6.1,13l20.7,30.1c-3.6,23.8-7.2,46.7-9.9,68.1h52.9-.1Z"/>
    <path class="st4" d="M179.5,539.2l.7,9.6h245.2l.7-9.6,10-148.8c.2-2.7-.8-5.4-2.6-7.3-1.8-2-4.4-3.1-7.1-3.1h-247c-2.7,0-5.3,1.1-7.1,3.1s-2.8,4.6-2.6,7.3l10,148.8h-.2Z"/>
    <path class="st1" d="M20.8,581.3l12.9,45c1.2,4.1,4.9,6.9,9.2,6.9h519.7c4.3,0,8-2.8,9.2-6.9l12.9-45c1.8-6.1-2.8-12.2-9.2-12.2H30c-6.3,0-10.9,6.1-9.2,12.2h0Z"/>
  </g>
  <g class="st3">
    <path class="st0" d="M887.1,10.3l-8.5,12.3,17.1,17.1,12.3-8.5,14.9,6.2,2.7,14.7h24.2l2.7-14.7,14.9-6.2,12.3,8.5,17.1-17.1-8.5-12.3,6.2-14.9,14.7-2.7v-24.2l-14.7-2.7-6.2-14.9,8.5-12.3-17.1-17.1-12.3,8.5-14.9-6.2-2.7-14.7h-24.2l-2.7,14.7-14.9,6.2-12.3-8.5-17.1,17.1,8.5,12.3-6.2,14.9-14.7,2.7V-7.3l14.7,2.7,6.2,14.9ZM937.7-50.7c17.3,0,31.3,14,31.3,31.3s-14,31.3-31.3,31.3-31.3-14-31.3-31.3,14-31.3,31.3-31.3Z"/>
    <g>
      <path class="st2" d="M881.2,138.8h31.5c7.3,0,13.2-5.9,13.2-13.2s-5.9-13.3-13.2-13.3h-28.7l-33.3-22.2c-3.2-2.2-7-3.5-10.9-3.8l-16.7-1.4h-2.1c-5.8,0-11.4,2-15.8,5.8-5,4.2-8.1,10.2-8.6,16.7l-4.6,60.9c0,1,.3,2,1,2.8s1.7,1.2,2.7,1.2h54.4c1.9,0,3.5-1.5,3.7-3.4l3.2-44.3,12.7,10.3c3.3,2.6,7.4,4.1,11.6,4.1h0v-.2Z"/>
      <path class="st2" d="M825.2,74.4c3.9,2.1,8.3,3.3,13,3.3s5.3-.4,7.7-1.1c11.3-3.3,19.5-13.8,19.5-26.1s-12.2-27.2-27.2-27.2-27.2,12.2-27.2,27.2,5.8,19.4,14.3,24h-.1Z"/>
      <path class="st2" d="M1078.8,107.3c-.5-6.5-3.7-12.5-8.6-16.7-4.4-3.8-10.1-5.8-15.8-5.8h-2.1l-16.7,1.4c-3.9.3-7.7,1.6-10.9,3.8l-33.3,22.2h-28.7c-7.3,0-13.2,5.9-13.2,13.3s5.9,13.2,13.2,13.2h31.5c4.2,0,8.3-1.5,11.6-4.1l12.7-10.3,3.2,44.3c0,1.9,1.7,3.4,3.7,3.4h54.4c1,0,2-.4,2.7-1.2s1.1-1.8,1-2.8l-4.6-60.9h0v.2Z"/>
      <path class="st2" d="M1030.4,76.4c2.2.6,4.5.9,6.9.9,4.3,0,8.4-1,12-2.8,9-4.4,15.2-13.7,15.2-24.5s-12.2-27.2-27.2-27.2-27.2,12.2-27.2,27.2,8.6,23.3,20.3,26.4h0Z"/>
      <rect class="st2" x="869.4" y="151.9" width="136.6" height="20.3" rx="3.5" ry="3.5"/>
    </g>
  </g>
  <g class="st3">
    <g>
      <path class="st1" d="M112.6,414.5v-16.7c0-6-4.9-10.9-10.9-10.9H-64c-6,0-10.9,4.9-10.9,10.9v210c0,6,4.9,10.9,10.9,10.9h15.5v-178.8c0-14.1,11.4-25.5,25.5-25.5H112.6Z"/>
      <path class="st1" d="M144.9,440.2c0-6-4.9-10.9-10.9-10.9H-22.8c-6,0-10.9,4.9-10.9,10.9v199.1c0,6,4.9,10.9,10.9,10.9h96.8c-5.3-9.5-8.8-20.1-9.9-31.3-.3-2.7-.4-5.5-.4-8.2,0-33.3,20.2-62,49-74.5,9.8-4.2,20.7-6.6,32-6.6h.3v-89.3h0ZM-3.8,536.1c0-3.3,2.6-5.9,5.9-5.9h44.5c3.3,0,5.9,2.6,5.9,5.9h0c0,3.3-2.6,5.9-5.9,5.9H2.1c-3.3,0-5.9-2.6-5.9-5.9h0ZM90.4,501.2c0,3.3-2.6,5.9-5.9,5.9H2.1c-3.3,0-5.9-2.6-5.9-5.9h0c0-3.3,2.6-5.9,5.9-5.9h82.4c3.3,0,5.9,2.6,5.9,5.9h0ZM90.4,466.2c0,3.3-2.6,5.9-5.9,5.9H2.1c-3.3,0-5.9-2.6-5.9-5.9h0c0-3.3,2.6-5.9,5.9-5.9h82.4c3.3,0,5.9,2.6,5.9,5.9h0Z"/>
    </g>
    <path class="st0" d="M159.6,544.4c-2.4-.5-4.9-1-7.4-1.2-2.4-.3-4.9-.4-7.4-.4h-.3c-11.6,0-22.5,2.9-32,8-21.3,11.5-35.8,34-35.8,59.8s.2,5.5.5,8.2c1.4,11.6,5.8,22.3,12.3,31.3,1.9,2.6,3.9,5.1,6.2,7.4,2.6,2.7,5.3,5.1,8.3,7.4,11.3,8.5,25.4,13.5,40.6,13.5,37.4,0,67.8-30.4,67.8-67.8s-22.6-59.3-52.8-66.1h0ZM137,641.5l-27.2-25.7c-3.7-3.5-3.8-9.4-.3-13.1h0c3.5-3.5,9.1-3.7,12.8-.4l13.8,12.6,30.8-32.1c3.5-3.7,9.3-3.7,12.9-.2h0c3.5,3.4,3.7,9.1.3,12.7l-43.1,46.3h0Z"/>
  </g>
  <g class="st3">
    <path class="st2" d="M442.5,388.4c0,10.9-8.8,19.7-19.7,19.7s-19.7-8.8-19.7-19.7,8.8-19.7,19.7-19.7,19.7,8.8,19.7,19.7Z"/>
    <path class="st1" d="M501.7,443.2h-24.9l-24.6-25.1c-.5-.5-1.1-.9-1.7-1.3-1.2-.8-2.4-1.3-3.7-1.6h-.3c-2.4-.5-4.9-1-7.6-1.4l-1.8-.2-14.2,61.9-14.2-61.9c-4.5.5-8.7,1.3-12.5,2.4-.3,0-.5,0-.8.2-9.8,3-17.2,11.9-17.5,22.6v51.5c0,8.8,7.2,16,16,16h1.3v80.7c0,6.8,5.5,12.2,12.2,12.2s6.4-1.4,8.6-3.6,3.6-5.2,3.6-8.6v-68.3c0-.9.4-1.7.9-2.3.6-.6,1.4-1,2.3-1,1.8,0,3.2,1.5,3.2,3.2v68.3c0,3.4,1.4,6.4,3.6,8.6s5.3,3.6,8.6,3.6c6.7,0,12.2-5.5,12.2-12.2v-131.6c0-1.3.8-2.6,2-3.1s2.7-.3,3.7.6l8.5,7.6c2.7,2.4,6.1,3.7,9.6,3.7h27.3c13.7-.5,13.7-20.2,0-20.7h0l.2-.2Z"/>
    <path class="st1" d="M418.5,415.7c-.6,0-1.1.4-1.3,1-.2.5-.4,1.2-.7,2.2,0,.4,0,.9.2,1.2l3.2,4.7c-.7,7.4-2.8,41.7-3.3,48.3l4.9,7.3h2.8l4.9-7.3c-.5-6.6-2.6-40.8-3.3-48.3l3.2-4.7c.2-.3.3-.8.2-1.2-.3-1-.6-1.7-.7-2.2-.2-.6-.7-1-1.3-1h-8.8Z"/>
    <path class="st1" d="M526.3,623.1c0-7.7,2.6-15,7-20.9-2.5-1.8-5.3-3.2-8.5-4.1h0c-1.7-.4-3.4-.7-5.1-.9-4.5,2.8-9.7,4.3-15,4.3s-10.5-1.5-15-4.3c-1.7.2-3.4.5-5.1.9h0c-11.3,3.1-19.2,13.2-19.2,25v13.4h60.9v-13.4h0Z"/>
    <path class="st1" d="M493.2,590.8c3.3,2.2,7.2,3.5,11.5,3.5s8.2-1.3,11.5-3.5c5.7-3.7,9.4-10.1,9.4-17.4,0-11.5-9.3-20.9-20.9-20.9s-20.9,9.3-20.9,20.9,3.7,13.7,9.4,17.4Z"/>
    <path class="st1" d="M684.2,623.1c0-11.7-7.9-21.9-19.2-25h0c-1.7-.4-3.4-.7-5.1-.9-4.5,2.8-9.7,4.3-15,4.3s-10.5-1.5-15-4.3c-1.7.2-3.4.5-5.1.9h0c-3.1.8-6,2.3-8.5,4.1,4.4,5.9,7,13.2,7,20.8v13.4h60.9v-13.4h0Z"/>
    <path class="st1" d="M633.3,590.8c3.3,2.2,7.2,3.5,11.5,3.5s8.2-1.3,11.5-3.5c5.7-3.7,9.4-10.1,9.4-17.4,0-11.5-9.3-20.9-20.9-20.9s-20.9,9.3-20.9,20.9,3.7,13.7,9.4,17.4Z"/>
    <path class="st1" d="M609.8,609c-3.4-5.2-8.6-9.2-14.9-10.9h0c-1.7-.4-3.4-.7-5.1-.9-4.5,2.8-9.7,4.3-15,4.3s-10.5-1.5-15-4.3c-1.7.2-3.4.5-5.1.9h0c-6.3,1.7-11.5,5.7-14.9,10.9-2.7,4.1-4.3,8.9-4.3,14.1v13.4h78.6v-13.4c0-5.2-1.6-10-4.3-14.1h0Z"/>
    <path class="st1" d="M574.8,552.5c-11.5,0-20.9,9.3-20.9,20.9s2.3,10.9,6,14.6,2.1,2,3.3,2.8c3.3,2.2,7.2,3.5,11.5,3.5s8.2-1.3,11.5-3.5c1.2-.8,2.3-1.8,3.3-2.8,3.7-3.8,6-8.9,6-14.6,0-11.5-9.3-20.9-20.9-20.9h.2Z"/>
    <path class="st0" d="M665.7,533.7h-172c-3.5,0-6.4-2.9-6.4-6.4v-44.3c0-3.5,2.9-6.4,6.4-6.4s6.4,2.9,6.4,6.4v37.9h159.2v-134.5h-159.2v37.9c0,3.5-2.9,6.4-6.4,6.4s-6.4-2.9-6.4-6.4v-44.3c0-3.5,2.9-6.4,6.4-6.4h172c3.5,0,6.4,2.9,6.4,6.4v147.4c0,3.5-2.9,6.4-6.4,6.4h0Z"/>
    <path class="st0" d="M627.1,426.1h-94.7c-3.5,0-6.4-2.9-6.4-6.4s2.9-6.4,6.4-6.4h94.7c3.5,0,6.4,2.9,6.4,6.4s-2.9,6.4-6.4,6.4h0Z"/>
    <path class="st0" d="M627.1,459.8h-94.7c-3.5,0-6.4-2.9-6.4-6.4s2.9-6.4,6.4-6.4h94.7c3.5,0,6.4,2.9,6.4,6.4s-2.9,6.4-6.4,6.4h0Z"/>
    <path class="st0" d="M591.8,493.4h-59.4c-3.5,0-6.4-2.9-6.4-6.4s2.9-6.4,6.4-6.4h59.4c3.5,0,6.4,2.9,6.4,6.4s-2.9,6.4-6.4,6.4Z"/>
  </g>
  <g class="st3">
    <path class="st0" d="M999.3,407.7c-2.9,0-5.6-2-6.4-5l-14.8-56.9c-.9-3.5,1.2-7.2,4.8-8.1,3.6-.9,7.2,1.2,8.1,4.8l14.8,56.9c.9,3.5-1.2,7.2-4.8,8.1-.6,0-1.1.2-1.7.2h0Z"/>
    <path class="st0" d="M970.9,420.2c-2,0-4.1-.9-5.4-2.7l-20.9-28.5c-2.2-3-1.5-7.1,1.4-9.3s7.1-1.5,9.3,1.4l20.9,28.5c2.2,3,1.5,7.1-1.4,9.3-1.2.9-2.6,1.3-3.9,1.3Z"/>
    <path class="st0" d="M1062.9,420.2c-1.4,0-2.7-.4-3.9-1.3-3-2.2-3.6-6.3-1.4-9.3l20.9-28.5c2.2-3,6.3-3.6,9.3-1.4,3,2.2,3.6,6.3,1.4,9.3l-20.9,28.5c-1.3,1.8-3.3,2.7-5.4,2.7Z"/>
    <path class="st0" d="M1034.5,407.7c-.6,0-1.1,0-1.7-.2-3.6-.9-5.7-4.5-4.8-8.1l14.8-56.9c.9-3.5,4.5-5.7,8.1-4.8s5.7,4.5,4.8,8.1l-14.8,56.9c-.8,3-3.5,5-6.4,5h0Z"/>
    <g>
      <path class="st0" d="M1028.8,429.3c-6.9-2.2-14.5-1.4-20.8,2.1l-44,24.3-17.3,47.1v.7c0,0,.2.3.5.4,10.2,2,17.8-.5,24.6-8.4,2.6-3,4.7-6.5,6.2-10.5l4.2-11.8,2.6-.5c6.4-1.2,11.3-2.8,15.8-5.4,3-1.7,5.6-3.6,8.5-5.8,2-1.5,4.8-1.1,6.3.8,1.5,2,1.1,4.8-.8,6.3-1.1.8-2.4,1.8-3.9,2.8l87.5,65.6,6.6,4.8c.3.2.6.5.9.7l5.1,3.8c1.7,1.2,3.7,1.9,5.8,1.9h12.6l-13.7-91.6-86.8-27.5h0v.2Z"/>
      <path class="st0" d="M1161.8,439.2c0-.8-.4-1.6-1-2.1s-1.5-.7-2.3-.5l-31.7,7.7c-1.3.3-2.1,1.5-2,2.8v.2l16.3,109.1c0,.8.7,1.6,1.4,2,.3.2.6.3,1,.3l15.3,1.6c.8,0,1.5-.2,2.1-.7s.9-1.2.9-2v-118.4h0Z"/>
      <path class="st1" d="M1091.9,543.3l-89.4-66.6c-4,2-8.3,3.4-13.3,4.5l-2.5,7.1c-2,5-4.6,9.5-7.9,13.2-7.1,8.2-15.3,12.2-25.2,12.2s-5.3-.3-8.1-.8c-2.8-.6-5.2-2.3-6.6-4.8s-1.7-5.5-.7-8.2l15.4-41.9h-37.2l-14.2,95,97.2,68.5c4,2.8,9.6,2,12.7-1.8,1.6-2,2.2-4.5,1.9-7-.4-2.5-1.7-4.7-3.8-6.2l-25.6-18c-1-.7-1.6-1.7-1.8-2.9-.2-1.2,0-2.4.8-3.4.7-1,1.7-1.6,2.9-1.8,1.2-.2,2.4,0,3.4.8l39.1,27.6c4.7,3.3,11.1,2.4,14.6-2.1,1.8-2.3,2.6-5.2,2.2-8.1-.4-2.9-2-5.5-4.4-7.2l-36-25.4c-1-.7-1.6-1.7-1.8-2.9s0-2.4.8-3.4c.7-1,1.8-1.6,2.9-1.8,1.2-.2,2.4,0,3.4.8l46,32.5c5.2,3.7,12.4,2.7,16.3-2.3,2-2.6,2.9-5.8,2.4-9s-2.2-6.1-4.9-8l-51.9-36.7c-1.6-1-2.3-2.9-1.9-4.8.5-2,2.4-3.5,4.6-3.5h1.3l1.2.8,52.6,37.2c5.8,4.1,13.8,3,18.1-2.6,2.2-2.8,3.2-6.3,2.7-9.9s-2.3-6.7-5.2-8.8h0v-.3Z"/>
      <path class="st1" d="M905.3,444.3l-31.7-7.7c-.8-.2-1.6,0-2.3.5s-1,1.3-1,2.1v118.4c0,.8.3,1.5.9,2s1.3.8,2.1.7l15.4-1.6c1.2-.2,2.2-1.1,2.3-2.3l16.3-109.1c.2-1.4-.7-2.7-2-3h0Z"/>
    </g>
  </g>
</svg>