<?xml version="1.0" encoding="UTF-8"?>
<svg id="Layer_1" xmlns="http://www.w3.org/2000/svg" version="1.1" viewBox="0 0 776.2 749.6">
  <!-- Generator: Adobe Illustrator 29.0.1, SVG Export Plug-In . SVG Version: 2.1.0 Build 192)  -->
  <defs>
    <style>
      .st0 {
        fill: #cde70e;
      }

      .st1 {
        fill: #083070;
      }

      .st2 {
        fill: #083173;
      }

      .st3 {
        display: none;
      }

      .st4 {
        fill: #afd8f9;
      }
    </style>
  </defs>
  <g class="st3">
    <path class="st1" d="M172.4,405.9c14.5-17.7,36.6-29,61.2-29,43.7,0,79.2,35.5,79.2,79.2s-6.2,35-16.6,48.5c.2,0,.4,0,.5,0h.3c23.9,6.3,43.7,21.2,56.5,40.9V216.8h-181.2v188.9h0v.2ZM219.1,247.5h86.2v16.8h-86.2v-16.8ZM219.1,283.8h86.2v16.8h-86.2v-16.8ZM219.1,320h86.2v16.8h-86.2v-16.8Z"/>
    <path class="st1" d="M482.2,504.9h0c.2,0,.4,0,.6-.2-10.4-13.4-16.6-30.2-16.6-48.5,0-43.7,35.6-79.2,79.2-79.2s48,12,62.5,30.7V101h-231v449.6h45.6c12.6-22,33.7-38.9,59.5-45.7h.2ZM518.3,137h36.9v33.2h-36.9v-33.2ZM518.3,204.6h36.9v33.2h-36.9v-33.2ZM518.3,272.1h36.9v33.2h-36.9v-33.2ZM428,137h36.9v33.2h-36.9v-33.2ZM428,204.6h36.9v33.2h-36.9v-33.2ZM428,272.1h36.9v33.2h-36.9v-33.2ZM428,339.6h36.9v33.2h-36.9v-33.2Z"/>
    <path class="st0" d="M291,527.6h0c-5.8-1.5-11.7-2.4-17.6-2.8-11.7,6.8-25.2,10.7-39.7,10.7s-28-3.9-39.7-10.7c-5.9.4-11.8,1.3-17.6,2.8h0c-1.3.3-2.6.7-3.8,1.1-30.3,9.8-51,38-51,70.1v21.4c0,4.6,3.7,8.3,8.3,8.3h207.8c4.6,0,8.3-3.7,8.3-8.3v-21.4c0-18.3-6.7-35.3-18-48.3-9.4-10.9-22.1-19-36.8-22.9h0Z"/>
    <path class="st0" d="M233.6,511.9c12.4,0,23.8-4,33.1-10.9,13.7-10.2,22.6-26.4,22.6-44.8,0-30.8-24.9-55.7-55.7-55.7s-55.7,24.9-55.7,55.7,8.9,34.7,22.6,44.8c9.2,6.8,20.7,10.9,33.1,10.9h0Z"/>
    <path class="st0" d="M630,541.2c-3.4-2.7-7.1-5.1-10.9-7.2-3.5-1.9-7.1-3.5-10.9-4.8-1.7-.6-3.4-1.1-5.2-1.6h0c-5.8-1.5-11.7-2.4-17.6-2.8-11.7,6.8-25.2,10.7-39.7,10.7s-28-3.9-39.7-10.7c-5.9.4-11.8,1.3-17.6,2.8h0c-14.7,3.9-27.3,12-36.8,22.9-3,3.4-5.6,7-7.9,10.9-2,3.5-3.8,7.1-5.3,10.9-3.2,8.3-4.9,17.2-4.9,26.5v21.4c0,4.6,3.7,8.3,8.3,8.3h207.7c4.6,0,8.3-3.7,8.3-8.3v-21.4c0-23-10.6-44-27.8-57.7h.2Z"/>
    <path class="st0" d="M489.9,456.2c0,18.4,8.9,34.7,22.6,44.8,9.2,6.8,20.7,10.9,33.1,10.9s23.8-4,33.1-10.9c13.7-10.2,22.6-26.4,22.6-44.8,0-30.8-24.9-55.7-55.7-55.7s-55.7,24.9-55.7,55.7h0Z"/>
  </g>
  <g class="st3">
    <path class="st1" d="M370.1,233.5c56,0,101.4-45.4,101.4-101.4s-45.4-101.4-101.5-101.4-101.5,45.4-101.5,101.4,45.4,101.5,101.5,101.5h.1Z"/>
    <path class="st1" d="M399.3,381.6h109.1c4.9,0,9.5,2,12.9,5.6s5,8.3,4.7,13.2l-.2,2.2-10.8,159.5c22.4-8.6,41.3-15.9,56.5-21.8,26.6-10.2,42.8-39.3,38.4-69.3-7.8-53.8-15.7-105.1-15.7-105.2-11.9-61.6-58.3-86.2-141-102.5l-54,118.3h0Z"/>
    <path class="st1" d="M130.2,471c-4.4,30,11.7,59.1,38.4,69.3,15.2,5.8,34.2,13.1,56.5,21.8l-10.8-159.5-.2-2.2c-.3-4.9,1.4-9.6,4.7-13.2,3.3-3.6,8-5.6,12.9-5.6h109.1l-54-118.3c-82.6,16.2-129.1,40.9-141,102.5,0,.2-7.9,51.4-15.7,105.2h0Z"/>
    <path class="st1" d="M396.6,381.6c-2.7-21.4-6.3-44.3-9.9-68.1l20.7-30.1c3.7-5.4,0-13-6.1-13h-1c-9.7,2.2-19.8,3.4-30.1,3.4s-20.4-1.2-30.1-3.4h-1c-6.2,0-9.8,7.6-6.1,13l20.7,30.1c-3.6,23.8-7.2,46.7-9.9,68.1h52.9-.1Z"/>
    <path class="st0" d="M246.9,563.7l.7,9.6h245.2l.7-9.6,10-148.8c.2-2.7-.8-5.4-2.6-7.3-1.8-2-4.4-3.1-7.1-3.1h-247c-2.7,0-5.3,1.1-7.1,3.1s-2.8,4.6-2.6,7.3l10,148.8h-.2Z"/>
    <path class="st1" d="M88.2,605.8l12.9,45c1.2,4.1,4.9,6.9,9.2,6.9h519.7c4.3,0,8-2.8,9.2-6.9l12.9-45c1.8-6.1-2.8-12.2-9.2-12.2H97.4c-6.3,0-10.9,6.1-9.2,12.2h0Z"/>
  </g>
  <g class="st3">
    <path class="st0" d="M263.7,286.6l-19.2,27.7,38.6,38.6,27.7-19.1,33.8,14,6.1,33.2h54.6l6.1-33.2,33.8-14,27.7,19.2,38.6-38.6-19.2-27.7,14-33.8,33.2-6.1v-54.6l-33.2-6.1-14-33.8,19.2-27.7-38.6-38.6-27.7,19.1-33.8-14-6.1-33.1h-54.6l-6.1,33.1-33.8,14-27.7-19.1-38.6,38.6,19.2,27.7-14,33.8-33.2,6.1v54.6l33.2,6.1,14,33.8h0ZM378.1,148.7c39.1,0,70.8,31.7,70.8,70.8s-31.7,70.8-70.8,70.8-70.8-31.7-70.8-70.8,31.7-70.8,70.8-70.8Z"/>
    <g>
      <path class="st2" d="M250.4,577.1h71.3c16.5,0,29.9-13.4,29.9-29.9s-13.4-30-29.9-30h-64.8l-75.2-50.2c-7.3-4.9-15.8-7.9-24.7-8.7l-37.8-3.2c-1.6,0-3.1-.2-4.7-.2-13,0-25.7,4.6-35.8,13.1-11.3,9.5-18.3,23.1-19.5,37.8l-10.4,137.7c-.2,2.3.6,4.6,2.2,6.3,1.6,1.7,3.8,2.7,6.1,2.7h122.9c4.4,0,8-3.4,8.3-7.7l7.2-100.1,28.8,23.2c7.4,6,16.7,9.3,26.2,9.3h0Z"/>
      <path class="st2" d="M123.7,431.5c8.7,4.7,18.7,7.4,29.3,7.4s11.9-.9,17.4-2.5c25.5-7.5,44.2-31.1,44.2-59.1s-27.6-61.6-61.6-61.6-61.6,27.6-61.6,61.6,13,43.7,32.2,54.2h0Z"/>
      <path class="st2" d="M697.2,505.8c-1.2-14.7-8.2-28.3-19.5-37.8-10.1-8.5-22.7-13.1-35.8-13.1s-3.1,0-4.7.2l-37.8,3.2c-8.8.8-17.3,3.7-24.7,8.7l-75.2,50.2h-64.8c-16.5,0-29.9,13.4-29.9,30s13.4,29.9,29.9,29.9h71.3c9.5,0,18.8-3.3,26.2-9.3l28.8-23.2,7.2,100.1c.3,4.3,3.9,7.7,8.3,7.7h122.9c2.3,0,4.5-1,6.1-2.7s2.4-4,2.2-6.3l-10.4-137.7h0Z"/>
      <path class="st2" d="M587.5,435.9c5,1.3,10.2,2,15.6,2,9.7,0,18.9-2.3,27.1-6.3,20.4-10,34.5-31,34.5-55.3s-27.6-61.6-61.6-61.6-61.6,27.6-61.6,61.6,19.5,52.7,46,59.6h0Z"/>
      <path class="st2" d="M231.6,606.6h292.9c4.4,0,8,3.6,8,8v29.9c0,4.4-3.6,8-8,8H231.6c-4.4,0-8-3.6-8-8v-29.9c0-4.4,3.6-8,8-8h0Z"/>
    </g>
  </g>
  <g class="st3">
    <g>
      <path class="st1" d="M474.2,150.4v-35.4c0-12.8-10.4-23.2-23.2-23.2H99.4c-12.8,0-23.2,10.4-23.2,23.2v445.7c0,12.8,10.4,23.2,23.2,23.2h33V204.5c0-29.9,24.2-54.1,54.1-54.1h287.7Z"/>
      <path class="st1" d="M542.8,204.9c0-12.8-10.4-23.2-23.2-23.2H186.8c-12.8,0-23.2,10.4-23.2,23.2v422.4c0,12.8,10.4,23.2,23.2,23.2h205.3c-11.3-20-18.7-42.6-21.1-66.5-.6-5.8-.9-11.6-.9-17.5,0-70.7,42.9-131.6,104.1-158,20.8-9,43.8-14,67.9-14h.6v-189.6h0ZM227.3,408.5c0-6.9,5.6-12.5,12.5-12.5h94.5c6.9,0,12.5,5.6,12.5,12.5h0c0,6.9-5.6,12.5-12.5,12.5h-94.5c-6.9,0-12.5-5.6-12.5-12.5h0ZM427.2,334.3c0,6.9-5.6,12.5-12.5,12.5h-174.9c-6.9,0-12.5-5.6-12.5-12.5h0c0-6.9,5.6-12.5,12.5-12.5h174.9c6.9,0,12.5,5.6,12.5,12.5h0ZM427.2,260.2c0,6.9-5.6,12.5-12.5,12.5h-174.9c-6.9,0-12.5-5.6-12.5-12.5h0c0-6.9,5.6-12.5,12.5-12.5h174.9c6.9,0,12.5,5.6,12.5,12.5h0Z"/>
    </g>
    <path class="st0" d="M574,426.1c-5.1-1.2-10.3-2.1-15.6-2.7-5.1-.6-10.3-.9-15.6-.9h-.6c-24.6,0-47.7,6.2-67.9,17.1-45.2,24.3-76,72-76,126.8s.4,11.8,1.1,17.5c3,24.6,12.2,47.3,26.1,66.5,4,5.5,8.3,10.7,13,15.6,5.4,5.7,11.3,10.9,17.6,15.6,24,18,53.8,28.7,86.1,28.7,79.4,0,143.9-64.6,143.9-143.9s-48-125.8-112.1-140.3h0ZM526.1,632.2l-57.8-54.6c-7.9-7.5-8.2-20-.6-27.8h0c7.3-7.5,19.3-7.9,27.1-.8l29.4,26.7,65.3-68.1c7.4-7.7,19.7-7.9,27.4-.5h0c7.5,7.3,7.8,19.2.6,26.9l-91.4,98.2h0Z"/>
  </g>
  <g class="st3">
    <path class="st2" d="M128.4,80.3c0,28.2-22.9,51.1-51.1,51.1s-51.1-22.9-51.1-51.1,22.9-51.1,51.1-51.1,51.1,22.9,51.1,51.1h0Z"/>
    <path class="st1" d="M282.3,222.8h-64.7l-64-65.2c-1.3-1.3-2.8-2.4-4.3-3.4-3-2-6.2-3.4-9.6-4.2-.3,0-.6-.1-.9-.2-6.2-1.4-12.8-2.6-19.7-3.5l-4.7-.6-37,160.9-37-160.9c-11.8,1.4-22.7,3.5-32.4,6.1-.7.2-1.3.4-2,.5-25.6,7.8-44.6,30.8-45.5,58.7v133.9c0,23,18.6,41.6,41.6,41.6h3.5v209.7c0,17.5,14.2,31.7,31.7,31.7s16.7-3.5,22.4-9.3,9.3-13.7,9.3-22.4v-177.4c0-2.3.9-4.5,2.5-6,1.5-1.5,3.7-2.5,6-2.5,4.7,0,8.5,3.8,8.5,8.5v177.4c0,8.8,3.5,16.7,9.3,22.4s13.7,9.3,22.4,9.3c17.5,0,31.7-14.2,31.7-31.7V254.1c0-3.5,2.1-6.7,5.3-8.1s7-.9,9.6,1.5l22.2,19.7c6.9,6.1,15.8,9.5,25,9.5h71c35.7-1.4,35.6-52.4,0-53.8h-.2Z"/>
    <path class="st1" d="M66.1,151.4c-1.6,0-3,1-3.5,2.5-.4,1.2-1,3-1.8,5.7-.3,1.1-.2,2.2.5,3.1l8.3,12.3c-1.8,19.3-7.3,108.3-8.6,125.5l12.8,18.9h7.2l12.8-18.9c-1.3-17.2-6.8-106.2-8.6-125.5l8.3-12.3c.6-.9.8-2.1.5-3.1-.8-2.6-1.4-4.4-1.8-5.7-.5-1.5-1.9-2.5-3.5-2.5h-22.6Z"/>
    <path class="st1" d="M346.2,690.3c0-20,6.7-38.9,18.1-54.2-6.5-4.7-13.9-8.4-22-10.6h0c-4.3-1.1-8.8-1.9-13.2-2.3-11.7,7.3-25.1,11.3-38.9,11.3s-27.3-3.9-38.9-11.3c-4.5.4-8.9,1.3-13.2,2.3h0c-29.4,8-49.9,34.4-49.9,64.8v34.7h158.3v-34.7h0Z"/>
    <path class="st1" d="M260.1,606.4c8.6,5.7,18.8,9,29.9,9s21.3-3.3,29.9-9c14.7-9.7,24.4-26.3,24.4-45.2,0-30-24.3-54.2-54.2-54.2s-54.2,24.3-54.2,54.2,9.7,35.5,24.3,45.2h-.1Z"/>
    <path class="st1" d="M756.4,690.3c0-30.5-20.5-56.9-49.9-64.8h0c-4.3-1.1-8.8-1.9-13.2-2.3-11.7,7.3-25.1,11.3-38.9,11.3s-27.3-3.9-38.9-11.3c-4.5.4-8.9,1.3-13.2,2.3h0c-8.1,2.2-15.5,5.9-22,10.7,11.4,15.3,18.1,34.2,18.1,54.2v34.7h158.3v-34.7h-.1Z"/>
    <path class="st1" d="M624.4,606.4c8.6,5.7,18.8,9,29.9,9s21.3-3.3,29.9-9c14.7-9.7,24.4-26.3,24.4-45.2,0-30-24.3-54.2-54.2-54.2s-54.2,24.3-54.2,54.2,9.7,35.5,24.3,45.2h-.1Z"/>
    <path class="st1" d="M563.2,653.7c-8.8-13.5-22.3-23.8-38.8-28.3h0c-4.3-1.1-8.8-1.9-13.2-2.3-11.7,7.3-25.1,11.3-38.9,11.3s-27.3-3.9-38.9-11.3c-4.5.4-8.9,1.3-13.2,2.3h0c-16.5,4.5-30,14.8-38.8,28.3-7,10.6-11.1,23.1-11.1,36.5v34.7h204.3v-34.7c0-13.4-4.2-25.9-11.1-36.5h-.1Z"/>
    <path class="st1" d="M472.1,506.9c-30,0-54.2,24.3-54.2,54.2s6,28.2,15.7,38c2.7,2.7,5.5,5.2,8.7,7.2,8.6,5.7,18.8,9,29.9,9s21.3-3.3,29.9-9c3.2-2.1,6-4.6,8.7-7.2,9.7-9.8,15.7-23.2,15.7-38,0-30-24.3-54.2-54.2-54.2h-.2Z"/>
    <path class="st0" d="M708.5,458.1h-446.9c-9.2,0-16.6-7.5-16.6-16.6v-115c0-9.2,7.5-16.6,16.6-16.6s16.6,7.5,16.6,16.6v98.4h413.7V75.2h-413.7v98.4c0,9.2-7.5,16.6-16.6,16.6s-16.6-7.5-16.6-16.6V58.6c0-9.2,7.5-16.6,16.6-16.6h446.9c9.2,0,16.6,7.4,16.6,16.6v382.9c0,9.2-7.4,16.6-16.6,16.6h0Z"/>
    <path class="st0" d="M608,178.4h-246.1c-9.2,0-16.6-7.5-16.6-16.6s7.5-16.6,16.6-16.6h246.1c9.2,0,16.6,7.5,16.6,16.6s-7.4,16.6-16.6,16.6Z"/>
    <path class="st0" d="M608,265.9h-246.1c-9.2,0-16.6-7.5-16.6-16.6s7.5-16.6,16.6-16.6h246.1c9.2,0,16.6,7.5,16.6,16.6s-7.4,16.6-16.6,16.6h0Z"/>
    <path class="st0" d="M516.3,353.4h-154.3c-9.2,0-16.6-7.5-16.6-16.6s7.5-16.6,16.6-16.6h154.3c9.2,0,16.6,7.5,16.6,16.6s-7.4,16.6-16.6,16.6Z"/>
  </g>
  <g>
    <path class="st4" d="M347.2,191.4c-7.5,0-14.3-5-16.2-12.6l-37.4-143.9c-2.3-9,3-18.1,12-20.4,9-2.3,18.1,3.1,20.5,12l37.4,143.9c2.3,9-3,18.1-12,20.4-1.4.4-2.8.5-4.2.5h0Z"/>
    <path class="st4" d="M275.4,222.9c-5.2,0-10.3-2.4-13.5-6.9l-52.8-72.1c-5.5-7.5-3.8-18,3.6-23.4s18-3.9,23.4,3.6l52.8,72.1c5.5,7.5,3.8,18-3.6,23.4-3,2.2-6.5,3.2-9.9,3.2h0Z"/>
    <path class="st4" d="M507.9,222.9c-3.4,0-6.9-1-9.9-3.2-7.5-5.5-9.1-16-3.6-23.4l52.8-72.1c5.5-7.5,16-9.1,23.4-3.6,7.5,5.5,9.1,16,3.6,23.4l-52.8,72.1c-3.3,4.5-8.4,6.9-13.5,6.9h0Z"/>
    <path class="st4" d="M436.1,191.4c-1.4,0-2.8-.2-4.2-.5-9-2.3-14.3-11.5-12-20.4l37.4-143.9c2.3-9,11.5-14.3,20.4-12s14.3,11.5,12,20.4l-37.4,143.9c-2,7.5-8.8,12.6-16.2,12.6h0Z"/>
    <g>
      <path class="st4" d="M421.6,246c-17.4-5.5-36.6-3.6-52.6,5.2l-111.2,61.6-43.7,119.1c-.2.6-.2,1.3.2,1.8.2.4.6.8,1.3,1,25.8,5.2,45-1.3,62.2-21.2,6.5-7.5,11.8-16.5,15.8-26.6l10.5-29.7,6.5-1.2c16.2-3,28.5-7.2,39.8-13.7,7.6-4.3,14.2-9.2,21.4-14.7,5-3.8,12.2-2.8,16.1,2.1,3.8,5,2.9,12.2-2.1,16-2.8,2.2-6.1,4.7-9.8,7.2l221.1,165.8,16.8,12.2c.8.5,1.6,1.2,2.4,1.8l12.8,9.5c4.3,3.2,9.4,4.9,14.7,4.9h31.7l-34.6-231.6-219.4-69.5h0Z"/>
      <path class="st4" d="M757.9,271c0-2.1-.9-4-2.6-5.3-1.6-1.3-3.7-1.7-5.7-1.2l-80.2,19.4c-3.2.8-5.4,3.8-5.1,7.1v.6l41.2,275.7c.3,2.1,1.7,4,3.6,5,.8.4,1.6.7,2.5.8l38.8,4c1.9.2,3.8-.4,5.2-1.7,1.4-1.3,2.2-3.1,2.2-5v-299.4h0Z"/>
      <path class="st1" d="M581.2,534l-226.1-168.4c-10,4.9-21.1,8.7-33.8,11.4l-6.3,17.9c-5,12.7-11.7,24-19.9,33.4-17.9,20.8-38.8,30.8-63.7,30.8s-13.4-.7-20.4-2.1c-7.1-1.4-13.2-5.9-16.8-12.2-3.6-6.4-4.2-13.9-1.7-20.8l38.9-105.9h-94.1l-35.9,240.2,245.8,173.1c10.2,7.2,24.3,5.2,32-4.6,4-5.1,5.7-11.4,4.8-17.8-.9-6.4-4.3-12-9.6-15.7l-64.6-45.6c-2.5-1.8-4.1-4.4-4.6-7.4s.2-6,2-8.5,4.4-4.1,7.4-4.6,6.1.2,8.5,1.9l98.8,69.8c11.8,8.3,28,6,36.9-5.3,4.6-5.8,6.6-13.1,5.5-20.5s-5-13.8-11.1-18.1l-91.1-64.3c-2.5-1.7-4.2-4.4-4.7-7.4s.2-6,1.9-8.5c1.8-2.5,4.4-4.1,7.4-4.6s6.1.2,8.6,2l116.4,82.1c13.2,9.3,31.3,6.7,41.2-5.9,5.2-6.5,7.3-14.7,6.2-22.9s-5.6-15.4-12.4-20.2l-131.3-92.8c-3.9-2.6-5.8-7.4-4.7-12,1.2-5.1,6-8.8,11.5-8.8h3.3l3,2.1,133,93.9c14.6,10.3,34.8,7.5,45.8-6.6,5.6-7.1,8.1-16,6.9-25s-5.8-16.9-13.1-22.4h0v.3Z"/>
      <path class="st1" d="M109.5,283.8l-80.2-19.4c-2-.5-4.1,0-5.7,1.2s-2.6,3.2-2.6,5.3v299.4c0,1.9.8,3.7,2.2,5s3.3,1.9,5.2,1.7l39-4.1c3-.4,5.5-2.8,5.9-5.8l41.2-275.7c.5-3.5-1.6-6.7-5-7.6h0Z"/>
    </g>
  </g>
</svg>